<svg width="305" height="76" viewBox="0 0 305 76" fill="none" xmlns="http://www.w3.org/2000/svg">
<path d="M23.1425 44.876H27.3515V20.11H19.9705V27.735H14.3585V15.108H48.5795V27.735H43.0285V20.11H35.7085V44.876H39.9785V50H23.1425V44.876ZM55.8571 54.575H58.2971C59.8424 54.575 60.9811 54.3513 61.7131 53.904C62.4857 53.4567 63.1771 52.501 63.7871 51.037L64.8851 48.414H62.6891L53.6611 30.297H50.4281V25.722H64.3361V30.297H61.2251L67.0201 43.168L72.3881 30.297H68.9721V25.722H81.9041V30.297H78.9761L69.2771 51.586C68.2197 53.904 67.3251 55.612 66.5931 56.71C65.8611 57.808 64.8851 58.6417 63.6651 59.211C62.4857 59.7803 60.8591 60.065 58.7851 60.065H55.8571V54.575ZM101.391 25.112C104.807 25.112 107.532 26.2507 109.565 28.528C111.639 30.7647 112.676 33.7943 112.676 37.617C112.676 40.2603 112.168 42.558 111.151 44.51C110.135 46.462 108.732 47.9667 106.942 49.024C105.153 50.0813 103.16 50.61 100.964 50.61C99.5409 50.61 98.2192 50.4067 96.9992 50C95.7792 49.5933 94.7625 49.0647 93.9492 48.414L93.8882 55.368H98.0972V59.943H82.9692V55.368H86.5072V30.297H83.0302V25.722H93.3392L93.4612 27.796C95.9012 26.0067 98.5445 25.112 101.391 25.112ZM98.5242 45.12C100.476 45.12 102.042 44.4897 103.221 43.229C104.441 41.9683 105.051 40.179 105.051 37.861C105.051 35.665 104.462 33.9367 103.282 32.676C102.144 31.3747 100.639 30.724 98.7682 30.724C97.9955 30.724 97.1822 30.8663 96.3282 31.151C95.4742 31.4357 94.6609 31.8627 93.8882 32.432L93.9492 43.656C95.3725 44.632 96.8975 45.12 98.5242 45.12ZM140.456 39.142H122.461C122.787 41.0533 123.6 42.5377 124.901 43.595C126.243 44.6117 127.911 45.12 129.903 45.12C132.913 45.12 135.617 44.083 138.016 42.009L140.151 46.462C138.809 47.7633 137.203 48.8003 135.332 49.573C133.462 50.305 131.408 50.671 129.171 50.671C125.023 50.671 121.668 49.5323 119.106 47.255C116.585 44.937 115.324 41.8057 115.324 37.861C115.324 35.3803 115.873 33.1843 116.971 31.273C118.11 29.321 119.676 27.8163 121.668 26.759C123.661 25.661 125.898 25.112 128.378 25.112C132.12 25.112 135.068 26.271 137.223 28.589C139.379 30.8663 140.456 33.8757 140.456 37.617V39.142ZM133.502 35.665C133.502 33.8757 133.035 32.493 132.099 31.517C131.164 30.541 129.883 30.053 128.256 30.053C126.67 30.053 125.369 30.541 124.352 31.517C123.336 32.493 122.705 33.8757 122.461 35.665H133.502ZM158.269 35.055C161.156 35.7463 163.291 36.6817 164.674 37.861C166.097 38.9997 166.809 40.7687 166.809 43.168C166.809 45.5267 165.935 47.3567 164.186 48.658C162.478 49.9593 160.343 50.61 157.781 50.61C156.195 50.61 154.711 50.4067 153.328 50C151.986 49.5527 150.868 48.9427 149.973 48.17V50H145.093V41.887H149.607L149.79 44.327C150.563 44.9777 151.498 45.5063 152.596 45.913C153.694 46.279 154.812 46.462 155.951 46.462C157.171 46.462 158.147 46.2383 158.879 45.791C159.611 45.303 159.977 44.6523 159.977 43.839C159.977 42.9037 159.631 42.2327 158.94 41.826C158.289 41.3787 157.09 40.9517 155.341 40.545L152.718 39.996C149.993 39.386 148.021 38.532 146.801 37.434C145.622 36.2953 145.032 34.6483 145.032 32.493C145.032 30.2157 145.845 28.4263 147.472 27.125C149.139 25.783 151.335 25.112 154.06 25.112C155.321 25.112 156.541 25.295 157.72 25.661C158.94 26.027 159.957 26.4947 160.77 27.064V25.661H165.711V33.591H161.197L160.831 30.785C160.221 30.297 159.428 29.9107 158.452 29.626C157.476 29.3413 156.541 29.199 155.646 29.199C154.589 29.199 153.694 29.4227 152.962 29.87C152.271 30.3173 151.925 30.9477 151.925 31.761C151.925 32.493 152.189 33.0623 152.718 33.469C153.287 33.835 154.223 34.1603 155.524 34.445L158.269 35.055ZM181.221 50C176.219 50 173.718 47.6007 173.718 42.802V30.297H170.302V25.722H173.657V17.731L181.099 16.145V25.722H186.894V30.297H181.099V41.704C181.099 43.0053 181.323 43.9407 181.77 44.51C182.217 45.0387 182.99 45.303 184.088 45.303H187.199V50H181.221ZM215.098 39.142H197.103C197.428 41.0533 198.242 42.5377 199.543 43.595C200.885 44.6117 202.552 45.12 204.545 45.12C207.554 45.12 210.259 44.083 212.658 42.009L214.793 46.462C213.451 47.7633 211.845 48.8003 209.974 49.573C208.103 50.305 206.05 50.671 203.813 50.671C199.665 50.671 196.31 49.5323 193.748 47.255C191.227 44.937 189.966 41.8057 189.966 37.861C189.966 35.3803 190.515 33.1843 191.613 31.273C192.752 29.321 194.317 27.8163 196.31 26.759C198.303 25.661 200.539 25.112 203.02 25.112C206.761 25.112 209.71 26.271 211.865 28.589C214.02 30.8663 215.098 33.8757 215.098 37.617V39.142ZM208.144 35.665C208.144 33.8757 207.676 32.493 206.741 31.517C205.806 30.541 204.525 30.053 202.898 30.053C201.312 30.053 200.011 30.541 198.994 31.517C197.977 32.493 197.347 33.8757 197.103 35.665H208.144ZM235.778 25.295C237.364 25.295 238.929 25.6813 240.475 26.454L238.889 32.554C237.343 31.7 235.778 31.273 234.192 31.273C232.85 31.273 231.691 31.7407 230.715 32.676C229.779 33.5707 229.312 34.8517 229.312 36.519L229.251 45.425H233.033V50H218.149V45.425H221.87V30.297H218.149V25.722H229.251V30.358C230.755 26.9827 232.931 25.295 235.778 25.295Z" fill="white"/>
<path d="M24.6691 62.675H30.7871V64.469H24.6691V62.675ZM33.1818 62.675H39.2998V64.469H33.1818V62.675ZM41.6945 62.675H47.8125V64.469H41.6945V62.675ZM50.2072 62.675H56.3252V64.469H50.2072V62.675ZM58.7199 62.675H64.8379V64.469H58.7199V62.675ZM67.2326 62.675H73.3506V64.469H67.2326V62.675ZM75.7453 62.675H81.8633V64.469H75.7453V62.675ZM84.258 62.675H90.376V64.469H84.258V62.675ZM92.7707 62.675H98.8887V64.469H92.7707V62.675ZM101.283 62.675H107.401V64.469H101.283V62.675ZM109.796 62.675H115.914V64.469H109.796V62.675ZM118.309 62.675H124.427V64.469H118.309V62.675ZM129.512 67.068H131.099V57.73H128.316V60.605H126.2V55.844H139.103V60.605H137.01V57.73H134.25V67.068H135.86V69H129.512V67.068ZM141.847 70.725H142.767C143.35 70.725 143.779 70.6407 144.055 70.472C144.347 70.3033 144.607 69.943 144.837 69.391L145.251 68.402H144.423L141.019 61.571H139.8V59.846H145.044V61.571H143.871L146.056 66.424L148.08 61.571H146.792V59.846H151.668V61.571H150.564L146.907 69.598C146.509 70.472 146.171 71.116 145.895 71.53C145.619 71.944 145.251 72.2583 144.791 72.473C144.347 72.6877 143.733 72.795 142.951 72.795H141.847V70.725ZM159.016 59.616C160.304 59.616 161.331 60.0453 162.098 60.904C162.88 61.7473 163.271 62.8897 163.271 64.331C163.271 65.3277 163.079 66.194 162.696 66.93C162.313 67.666 161.784 68.2333 161.109 68.632C160.434 69.0307 159.683 69.23 158.855 69.23C158.318 69.23 157.82 69.1533 157.36 69C156.9 68.8467 156.517 68.6473 156.21 68.402L156.187 71.024H157.774V72.749H152.07V71.024H153.404V61.571H152.093V59.846H155.98L156.026 60.628C156.946 59.9533 157.943 59.616 159.016 59.616ZM157.935 67.16C158.671 67.16 159.261 66.9223 159.706 66.447C160.166 65.9717 160.396 65.297 160.396 64.423C160.396 63.595 160.174 62.9433 159.729 62.468C159.3 61.9773 158.732 61.732 158.027 61.732C157.736 61.732 157.429 61.7857 157.107 61.893C156.785 62.0003 156.478 62.1613 156.187 62.376L156.21 66.608C156.747 66.976 157.322 67.16 157.935 67.16ZM166.754 58.052C166.248 58.052 165.834 57.8987 165.512 57.592C165.19 57.2853 165.029 56.8943 165.029 56.419C165.029 55.9283 165.19 55.5297 165.512 55.223C165.834 54.9163 166.248 54.763 166.754 54.763C167.26 54.763 167.666 54.9163 167.973 55.223C168.295 55.5297 168.456 55.9283 168.456 56.419C168.471 56.8943 168.318 57.2853 167.996 57.592C167.674 57.8987 167.26 58.052 166.754 58.052ZM164.201 67.275H165.604V61.571H164.224V59.846H168.387V67.275H169.721V69H164.201V67.275ZM182.242 67.275V69H176.929V67.275H178.102V63.227C178.102 62.7057 177.979 62.2993 177.734 62.008C177.488 61.7167 177.143 61.571 176.699 61.571C176.085 61.571 175.426 61.778 174.721 62.192V67.275H175.963V69H170.535V67.275H171.938V61.571H170.535V59.846H174.56L174.583 60.697C175.702 59.9763 176.775 59.616 177.803 59.616C178.738 59.616 179.482 59.9073 180.034 60.49C180.601 61.0573 180.885 61.8163 180.885 62.767V67.275H182.242ZM194.229 59.846V61.571H192.964V68.77C192.964 70.3033 192.52 71.461 191.63 72.243C190.756 73.025 189.56 73.416 188.042 73.416C186.846 73.416 185.566 73.1937 184.201 72.749L184.661 70.932C185.765 71.2847 186.754 71.461 187.628 71.461C188.456 71.461 189.085 71.2617 189.514 70.863C189.959 70.4643 190.181 69.8817 190.181 69.115V68.241C189.399 68.839 188.479 69.138 187.421 69.138C186.087 69.138 185.006 68.7163 184.178 67.873C183.366 67.0143 182.959 65.8567 182.959 64.4C182.959 62.9433 183.366 61.7857 184.178 60.927C184.991 60.0683 186.064 59.639 187.398 59.639C187.935 59.639 188.456 59.7387 188.962 59.938C189.468 60.122 189.905 60.375 190.273 60.697L190.296 59.846H194.229ZM185.834 64.446C185.834 65.274 186.057 65.9257 186.501 66.401C186.961 66.8763 187.552 67.114 188.272 67.114C188.962 67.114 189.599 66.9223 190.181 66.539L190.158 62.33C189.499 61.87 188.84 61.64 188.18 61.64C187.475 61.64 186.908 61.8853 186.478 62.376C186.049 62.8513 185.834 63.5413 185.834 64.446ZM220.055 67.275V69H214.742V67.275H215.915V63.227C215.915 62.7057 215.793 62.2993 215.547 62.008C215.302 61.7167 214.957 61.571 214.512 61.571C213.807 61.571 213.102 61.8163 212.396 62.307C212.412 62.4143 212.419 62.5753 212.419 62.79V67.275H213.776V69H208.463V67.275H209.636V63.227C209.636 62.7057 209.506 62.2993 209.245 62.008C209 61.7167 208.655 61.571 208.21 61.571C207.643 61.571 206.999 61.7703 206.278 62.169V67.275H207.52V69H202.092V67.275H203.495V61.571H202.115V59.846H206.117L206.163 60.697C207.252 59.9763 208.31 59.616 209.337 59.616C209.935 59.616 210.457 59.7387 210.901 59.984C211.361 60.2293 211.722 60.5743 211.982 61.019C212.596 60.559 213.194 60.214 213.776 59.984C214.374 59.7387 214.995 59.616 215.639 59.616C216.559 59.616 217.295 59.9073 217.847 60.49C218.415 61.0573 218.698 61.8163 218.698 62.767V67.275H220.055ZM230.766 67.275V69H227.224L227.017 68.172C226.128 68.8927 225.131 69.253 224.027 69.253C223.107 69.253 222.363 69.0077 221.796 68.517C221.244 68.011 220.968 67.3593 220.968 66.562C220.968 65.5807 221.305 64.86 221.98 64.4C222.67 63.94 223.544 63.71 224.602 63.71C225.369 63.71 226.105 63.8097 226.81 64.009V63.365C226.81 62.7517 226.649 62.2917 226.327 61.985C226.005 61.663 225.537 61.502 224.924 61.502C224.004 61.502 222.984 61.7703 221.865 62.307L221.198 60.674C221.842 60.3213 222.532 60.0607 223.268 59.892C224.019 59.708 224.748 59.616 225.453 59.616C226.741 59.616 227.745 59.938 228.466 60.582C229.187 61.2107 229.547 62.077 229.547 63.181V67.275H230.766ZM223.475 66.378C223.475 66.7767 223.598 67.0987 223.843 67.344C224.104 67.574 224.449 67.689 224.878 67.689C225.568 67.689 226.212 67.4513 226.81 66.976V65.251C226.304 65.0823 225.752 64.998 225.154 64.998C224.679 64.998 224.28 65.113 223.958 65.343C223.636 65.5577 223.475 65.9027 223.475 66.378ZM242.741 67.275V69H238.877L238.854 68.333C237.995 68.9463 237.029 69.253 235.956 69.253C235.113 69.253 234.361 69.0537 233.702 68.655C233.043 68.2563 232.521 67.6967 232.138 66.976C231.755 66.24 231.563 65.3813 231.563 64.4C231.563 63.434 231.747 62.5907 232.115 61.87C232.498 61.1493 233.012 60.5973 233.656 60.214C234.315 59.8153 235.051 59.616 235.864 59.616C236.968 59.616 237.919 59.938 238.716 60.582V57.316H237.221V55.614H241.499V67.275H242.741ZM234.461 64.492C234.461 65.3047 234.683 65.9563 235.128 66.447C235.588 66.9223 236.178 67.16 236.899 67.16C237.543 67.16 238.149 66.976 238.716 66.608V62.376C238.133 61.9313 237.497 61.709 236.807 61.709C236.102 61.709 235.534 61.9543 235.105 62.445C234.676 62.9203 234.461 63.6027 234.461 64.492ZM253.078 64.906H246.293C246.415 65.6267 246.722 66.1863 247.213 66.585C247.719 66.9683 248.347 67.16 249.099 67.16C250.233 67.16 251.253 66.769 252.158 65.987L252.963 67.666C252.457 68.1567 251.851 68.5477 251.146 68.839C250.44 69.115 249.666 69.253 248.823 69.253C247.259 69.253 245.994 68.8237 245.028 67.965C244.077 67.091 243.602 65.9103 243.602 64.423C243.602 63.4877 243.809 62.6597 244.223 61.939C244.652 61.203 245.242 60.6357 245.994 60.237C246.745 59.823 247.588 59.616 248.524 59.616C249.934 59.616 251.046 60.053 251.859 60.927C252.671 61.7857 253.078 62.9203 253.078 64.331V64.906ZM250.456 63.595C250.456 62.9203 250.279 62.399 249.927 62.031C249.574 61.663 249.091 61.479 248.478 61.479C247.88 61.479 247.389 61.663 247.006 62.031C246.622 62.399 246.385 62.9203 246.293 63.595H250.456ZM270.777 64.906H263.992C264.115 65.6267 264.421 66.1863 264.912 66.585C265.418 66.9683 266.047 67.16 266.798 67.16C267.933 67.16 268.952 66.769 269.857 65.987L270.662 67.666C270.156 68.1567 269.55 68.5477 268.845 68.839C268.14 69.115 267.365 69.253 266.522 69.253C264.958 69.253 263.693 68.8237 262.727 67.965C261.776 67.091 261.301 65.9103 261.301 64.423C261.301 63.4877 261.508 62.6597 261.922 61.939C262.351 61.203 262.942 60.6357 263.693 60.237C264.444 59.823 265.288 59.616 266.223 59.616C267.634 59.616 268.745 60.053 269.558 60.927C270.371 61.7857 270.777 62.9203 270.777 64.331V64.906ZM268.155 63.595C268.155 62.9203 267.979 62.399 267.626 62.031C267.273 61.663 266.79 61.479 266.177 61.479C265.579 61.479 265.088 61.663 264.705 62.031C264.322 62.399 264.084 62.9203 263.992 63.595H268.155ZM281.932 67.275V69H278.39L278.183 68.172C277.294 68.8927 276.297 69.253 275.193 69.253C274.273 69.253 273.529 69.0077 272.962 68.517C272.41 68.011 272.134 67.3593 272.134 66.562C272.134 65.5807 272.471 64.86 273.146 64.4C273.836 63.94 274.71 63.71 275.768 63.71C276.535 63.71 277.271 63.8097 277.976 64.009V63.365C277.976 62.7517 277.815 62.2917 277.493 61.985C277.171 61.663 276.703 61.502 276.09 61.502C275.17 61.502 274.15 61.7703 273.031 62.307L272.364 60.674C273.008 60.3213 273.698 60.0607 274.434 59.892C275.185 59.708 275.914 59.616 276.619 59.616C277.907 59.616 278.911 59.938 279.632 60.582C280.353 61.2107 280.713 62.077 280.713 63.181V67.275H281.932ZM274.641 66.378C274.641 66.7767 274.764 67.0987 275.009 67.344C275.27 67.574 275.615 67.689 276.044 67.689C276.734 67.689 277.378 67.4513 277.976 66.976V65.251C277.47 65.0823 276.918 64.998 276.32 64.998C275.845 64.998 275.446 65.113 275.124 65.343C274.802 65.5577 274.641 65.9027 274.641 66.378ZM288.364 63.365C289.453 63.6257 290.258 63.9783 290.779 64.423C291.316 64.8523 291.584 65.5193 291.584 66.424C291.584 67.3133 291.254 68.0033 290.595 68.494C289.951 68.9847 289.146 69.23 288.18 69.23C287.582 69.23 287.022 69.1533 286.501 69C285.995 68.8313 285.573 68.6013 285.236 68.31V69H283.396V65.941H285.098L285.167 66.861C285.458 67.1063 285.811 67.3057 286.225 67.459C286.639 67.597 287.061 67.666 287.49 67.666C287.95 67.666 288.318 67.5817 288.594 67.413C288.87 67.229 289.008 66.9837 289.008 66.677C289.008 66.3243 288.878 66.0713 288.617 65.918C288.372 65.7493 287.919 65.5883 287.26 65.435L286.271 65.228C285.244 64.998 284.5 64.676 284.04 64.262C283.595 63.8327 283.373 63.2117 283.373 62.399C283.373 61.5403 283.68 60.8657 284.293 60.375C284.922 59.869 285.75 59.616 286.777 59.616C287.252 59.616 287.712 59.685 288.157 59.823C288.617 59.961 289 60.1373 289.307 60.352V59.823H291.17V62.813H289.468L289.33 61.755C289.1 61.571 288.801 61.4253 288.433 61.318C288.065 61.2107 287.712 61.157 287.375 61.157C286.976 61.157 286.639 61.2413 286.363 61.41C286.102 61.5787 285.972 61.8163 285.972 62.123C285.972 62.399 286.072 62.6137 286.271 62.767C286.486 62.905 286.838 63.0277 287.329 63.135L288.364 63.365ZM294.649 70.725H295.569C296.152 70.725 296.581 70.6407 296.857 70.472C297.149 70.3033 297.409 69.943 297.639 69.391L298.053 68.402H297.225L293.821 61.571H292.602V59.846H297.846V61.571H296.673L298.858 66.424L300.882 61.571H299.594V59.846H304.47V61.571H303.366L299.709 69.598C299.311 70.472 298.973 71.116 298.697 71.53C298.421 71.944 298.053 72.2583 297.593 72.473C297.149 72.6877 296.535 72.795 295.753 72.795H294.649V70.725Z" fill="white"/>
</svg>
